{"asset":{"version":"2.0","generator":"Unity 2022.3.53f1 glTFast 6.9.0"},"nodes":[{"name":"Main Camera","children":[58],"translation":[0,1,-10]},{"name":"Directional Light","children":[59],"translation":[-1.29,6.08,-2.24],"rotation":[0.408217877,0.234569684,-0.109381631,0.8754261]},{"name":"Cylinder","mesh":0,"translation":[-2.88,0.3,-10.44],"scale":[1,0.3,1]},{"name":"Cylinder (1)","mesh":0,"translation":[-1.53,0.3,-10.44],"scale":[1,0.3,1]},{"name":"Plane","mesh":1,"translation":[0,0,-7.387289]},{"name":"Cube","mesh":2,"translation":[4.35,0.5,-7.37],"scale":[1,1,9.751447]},{"name":"Cube (6)","mesh":2,"translation":[4.35,3.4,-7.37],"scale":[1,1,9.751447]},{"name":"Cube (2)","mesh":2,"translation":[-4.2,0.5,-7.37],"scale":[1,1,9.751447]},{"name":"Cube (4)","mesh":2,"translation":[-4.2,3.4,-7.37],"scale":[1,1,9.751447]},{"name":"Cube (12)","mesh":2,"translation":[-2.6405,4.1,-7.35],"scale":[0.93754,0.4228,8.533938]},{"name":"Cube (13)","mesh":2,"translation":[-0.87792,4.1,-7.35],"scale":[0.93754,0.4228,8.533938]},{"name":"Cube (14)","mesh":2,"translation":[0.93,4.1,-7.35],"scale":[0.93754,0.4228,8.533938]},{"name":"Cube (15)","mesh":2,"translation":[2.7485,4.1,-7.35],"scale":[0.93754,0.4228,8.533938]},{"name":"Cube (8)","mesh":2,"translation":[-4.2,1.92,-11.77],"rotation":[0.707106769,0,0,0.7071067],"scale":[0.2,0.200000033,2.05280018]},{"name":"Cube (9)","mesh":2,"translation":[-4.2,1.92,-2.96],"rotation":[0.707106769,0,0,0.7071067],"scale":[0.2,0.200000033,2.05280018]},{"name":"Cube (10)","mesh":2,"translation":[4.36,1.92,-2.96],"rotation":[0.707106769,0,0,0.7071067],"scale":[0.2,0.200000033,2.05280018]},{"name":"Cube (11)","mesh":2,"translation":[4.36,1.92,-11.68],"rotation":[0.707106769,0,0,0.7071067],"scale":[0.2,0.200000033,2.05280018]},{"name":"Cube (1)","mesh":2,"translation":[0.09,0.5,-11.76],"rotation":[0,-0.707106769,0,0.7071067],"scale":[1.00000012,1,7.579407]},{"name":"Cube (5)","mesh":2,"translation":[0.12,3.4,-11.75],"rotation":[0,-0.707106769,0,0.7071067],"scale":[1.00000012,1,7.68521261]},{"name":"Cube (3)","mesh":2,"translation":[0.09,0.5,-2.95],"rotation":[0,-0.707106769,0,0.7071067],"scale":[1.00000012,1,7.579407]},{"name":"Cube (7)","mesh":2,"translation":[0.03,3.4,-3.06],"rotation":[0,-0.707106769,0,0.7071067],"scale":[1.00000012,1,7.68521261]},{"name":"body","mesh":3,"translation":[0,-0.8125,-0.125]},{"name":"body_0","mesh":4,"translation":[0,-0.0625,0.3125],"rotation":[0.130526185,0,0,0.9914449]},{"name":"head","mesh":5,"translation":[0,-1,0.3125]},{"name":"head_0","mesh":6,"translation":[0,-1,0.3125]},{"name":"head","children":[23,24],"translation":[0,0.0625,-0.4375]},{"name":"body","mesh":7,"translation":[-0.03125,-0.21875,0.125],"rotation":[-0.0217941217,-0.04360901,-0.000951551949,0.99881047]},{"name":"wing_0","children":[26],"translation":[-0.3125,0.25,-0.1875]},{"name":"body","mesh":8,"translation":[0.03125,-0.21875,0.125],"rotation":[-0.0217941217,0.04360901,0.000951551949,0.99881047]},{"name":"wing_1","children":[28],"translation":[0.3125,0.25,-0.1875]},{"name":"leg1","mesh":9,"translation":[0.0625,-0.3125,-0.0625]},{"name":"leg1","children":[30],"translation":[-0.125,-0.3125,-0.0625]},{"name":"leg1","mesh":10,"translation":[-0.0625,-0.3125,-0.0625]},{"name":"leg2","children":[32],"translation":[0.125,-0.3125,-0.0625]},{"name":"body","children":[21,22,25,27,29,31,33],"translation":[0,0.625,0.125]},{"name":"TURKEY","children":[34],"translation":[2.654,0.045,-6.25]},{"name":"body","mesh":11,"rotation":[-0.7071068,0,0,0.7071068]},{"name":"bone","mesh":12,"translation":[0,-0.375,-0.4375],"rotation":[-0.7071068,0,0,0.7071068]},{"name":"bone","children":[37],"translation":[0,0.375,0.4375],"rotation":[-4.32978063E-17,-0.7071068,0.7071068,4.32978063E-17]},{"name":"body","children":[36,38],"translation":[0,0.625,0]},{"name":"head","mesh":13,"translation":[0,-0.6875,0.25]},{"name":"lead","scale":[0.0295081958,0.0295081958,0.0295081958]},{"name":"lead","children":[41]},{"name":"comb","mesh":14,"translation":[0.0625,-0.6875,0.25]},{"name":"comb_0","mesh":15,"translation":[0.0625,-0.6875,0.25]},{"name":"comb","children":[43,44],"translation":[-0.0625,0,0]},{"name":"beak","mesh":16,"translation":[0,-0.6875,0.25]},{"name":"beak","children":[46]},{"name":"head","children":[40,42,45,47],"translation":[0,0.6875,-0.25]},{"name":"leg0","mesh":17,"translation":[-0.125,-0.4375,-0.0625]},{"name":"leg0","children":[49],"translation":[0.125,0.4375,0.0625]},{"name":"leg1","mesh":18,"translation":[0.0625,-0.4375,-0.0625]},{"name":"leg1","children":[51],"translation":[-0.0625,0.4375,0.0625]},{"name":"wing0","mesh":19,"translation":[-0.1875,-0.8125,0]},{"name":"wing0","children":[53],"translation":[0.1875,0.8125,0]},{"name":"wing1","mesh":20,"translation":[0.1875,-0.8125,0]},{"name":"wing1","children":[55],"translation":[-0.1875,0.8125,0]},{"name":"CHIKEN","children":[39,48,50,52,54,56],"translation":[1.38,0,-6.03]},{"name":"Main Camera_Orientation","rotation":[0,-1,0,-4.371139E-08],"camera":0},{"name":"Directional Light_Orientation","rotation":[0,-1,0,-4.371139E-08],"extensions":{"KHR_lights_punctual":{"light":0}}}],"extensionsRequired":["KHR_lights_punctual"],"extensionsUsed":["KHR_lights_punctual"],"buffers":[{"uri":"SampleScene.bin","byteLength":30248}],"bufferViews":[{"buffer":0,"byteLength":480,"target":34963},{"buffer":0,"byteLength":1200,"byteOffset":480,"target":34963},{"buffer":0,"byteLength":72,"byteOffset":1680,"target":34963},{"buffer":0,"byteLength":144,"byteOffset":1752,"target":34963},{"buffer":0,"byteLength":144,"byteOffset":1896,"target":34963},{"buffer":0,"byteLength":144,"byteOffset":2040,"target":34963},{"buffer":0,"byteLength":144,"byteOffset":2184,"target":34963},{"buffer":0,"byteLength":144,"byteOffset":2328,"target":34963},{"buffer":0,"byteLength":144,"byteOffset":2472,"target":34963},{"buffer":0,"byteLength":144,"byteOffset":2616,"target":34963},{"buffer":0,"byteLength":144,"byteOffset":2760,"target":34963},{"buffer":0,"byteLength":144,"byteOffset":2904,"target":34963},{"buffer":0,"byteLength":144,"byteOffset":3048,"target":34963},{"buffer":0,"byteLength":144,"byteOffset":3192,"target":34963},{"buffer":0,"byteLength":144,"byteOffset":3336,"target":34963},{"buffer":0,"byteLength":144,"byteOffset":3480,"target":34963},{"buffer":0,"byteLength":144,"byteOffset":3624,"target":34963},{"buffer":0,"byteLength":144,"byteOffset":3768,"target":34963},{"buffer":0,"byteLength":144,"byteOffset":3912,"target":34963},{"buffer":0,"byteLength":144,"byteOffset":4056,"target":34963},{"buffer":0,"byteLength":144,"byteOffset":4200,"target":34963},{"buffer":0,"byteLength":576,"byteOffset":4344,"byteStride":24,"target":34962},{"buffer":0,"byteLength":192,"byteOffset":4920,"byteStride":8,"target":34962},{"buffer":0,"byteLength":576,"byteOffset":5112,"byteStride":24,"target":34962},{"buffer":0,"byteLength":192,"byteOffset":5688,"byteStride":8,"target":34962},{"buffer":0,"byteLength":576,"byteOffset":5880,"byteStride":24,"target":34962},{"buffer":0,"byteLength":192,"byteOffset":6456,"byteStride":8,"target":34962},{"buffer":0,"byteLength":576,"byteOffset":6648,"byteStride":24,"target":34962},{"buffer":0,"byteLength":192,"byteOffset":7224,"byteStride":8,"target":34962},{"buffer":0,"byteLength":576,"byteOffset":7416,"byteStride":24,"target":34962},{"buffer":0,"byteLength":192,"byteOffset":7992,"byteStride":8,"target":34962},{"buffer":0,"byteLength":576,"byteOffset":8184,"byteStride":24,"target":34962},{"buffer":0,"byteLength":192,"byteOffset":8760,"byteStride":8,"target":34962},{"buffer":0,"byteLength":576,"byteOffset":8952,"byteStride":24,"target":34962},{"buffer":0,"byteLength":192,"byteOffset":9528,"byteStride":8,"target":34962},{"buffer":0,"byteLength":576,"byteOffset":9720,"byteStride":24,"target":34962},{"buffer":0,"byteLength":192,"byteOffset":10296,"byteStride":8,"target":34962},{"buffer":0,"byteLength":576,"byteOffset":10488,"byteStride":24,"target":34962},{"buffer":0,"byteLength":192,"byteOffset":11064,"byteStride":8,"target":34962},{"buffer":0,"byteLength":576,"byteOffset":11256,"byteStride":24,"target":34962},{"buffer":0,"byteLength":192,"byteOffset":11832,"byteStride":8,"target":34962},{"buffer":0,"byteLength":576,"byteOffset":12024,"byteStride":24,"target":34962},{"buffer":0,"byteLength":192,"byteOffset":12600,"byteStride":8,"target":34962},{"buffer":0,"byteLength":576,"byteOffset":12792,"byteStride":24,"target":34962},{"buffer":0,"byteLength":192,"byteOffset":13368,"byteStride":8,"target":34962},{"buffer":0,"byteLength":576,"byteOffset":13560,"byteStride":24,"target":34962},{"buffer":0,"byteLength":192,"byteOffset":14136,"byteStride":8,"target":34962},{"buffer":0,"byteLength":576,"byteOffset":14328,"byteStride":24,"target":34962},{"buffer":0,"byteLength":192,"byteOffset":14904,"byteStride":8,"target":34962},{"buffer":0,"byteLength":576,"byteOffset":15096,"byteStride":24,"target":34962},{"buffer":0,"byteLength":192,"byteOffset":15672,"byteStride":8,"target":34962},{"buffer":0,"byteLength":576,"byteOffset":15864,"byteStride":24,"target":34962},{"buffer":0,"byteLength":192,"byteOffset":16440,"byteStride":8,"target":34962},{"buffer":0,"byteLength":576,"byteOffset":16632,"byteStride":24,"target":34962},{"buffer":0,"byteLength":192,"byteOffset":17208,"byteStride":8,"target":34962},{"buffer":0,"byteLength":576,"byteOffset":17400,"byteStride":24,"target":34962},{"buffer":0,"byteLength":192,"byteOffset":17976,"byteStride":8,"target":34962},{"buffer":0,"byteLength":5808,"byteOffset":18168,"byteStride":48,"target":34962},{"buffer":0,"byteLength":4928,"byteOffset":23976,"byteStride":56,"target":34962},{"buffer":0,"byteLength":1344,"byteOffset":28904,"byteStride":56,"target":34962}],"accessors":[{"bufferView":58,"componentType":5126,"count":88,"type":"VEC3","max":[0.5,1,0.5],"min":[-0.5000001,-1,-0.500000238]},{"bufferView":58,"componentType":5126,"count":88,"type":"VEC3","byteOffset":12},{"bufferView":58,"componentType":5126,"count":88,"type":"VEC4","byteOffset":24},{"bufferView":58,"componentType":5126,"count":88,"type":"VEC2","byteOffset":40},{"bufferView":58,"componentType":5126,"count":88,"type":"VEC2","byteOffset":48},{"bufferView":0,"componentType":5123,"count":240,"type":"SCALAR"},{"bufferView":57,"componentType":5126,"count":121,"type":"VEC3","max":[5,1.110223E-16,5],"min":[-5,-1.110223E-16,-5]},{"bufferView":57,"componentType":5126,"count":121,"type":"VEC3","byteOffset":12},{"bufferView":57,"componentType":5126,"count":121,"type":"VEC4","byteOffset":24},{"bufferView":57,"componentType":5126,"count":121,"type":"VEC2","byteOffset":40},{"bufferView":1,"componentType":5123,"count":600,"type":"SCALAR"},{"bufferView":59,"componentType":5126,"count":24,"type":"VEC3","max":[0.5,0.5,0.5],"min":[-0.5,-0.5,-0.5]},{"bufferView":59,"componentType":5126,"count":24,"type":"VEC3","byteOffset":12},{"bufferView":59,"componentType":5126,"count":24,"type":"VEC4","byteOffset":24},{"bufferView":59,"componentType":5126,"count":24,"type":"VEC2","byteOffset":40},{"bufferView":59,"componentType":5126,"count":24,"type":"VEC2","byteOffset":48},{"bufferView":2,"componentType":5123,"count":36,"type":"SCALAR"},{"bufferView":21,"componentType":5126,"count":24,"type":"VEC3","max":[0.3125,1.0625,0.4375],"min":[-0.3125,0.5,-0.3125]},{"bufferView":21,"componentType":5126,"count":24,"type":"VEC3","byteOffset":12},{"bufferView":22,"componentType":5126,"count":24,"type":"VEC2"},{"bufferView":3,"componentType":5125,"count":36,"type":"SCALAR"},{"bufferView":23,"componentType":5126,"count":24,"type":"VEC3","max":[0.5,0.75,6.25E-05],"min":[-0.5,0,0]},{"bufferView":23,"componentType":5126,"count":24,"type":"VEC3","byteOffset":12},{"bufferView":24,"componentType":5126,"count":24,"type":"VEC2"},{"bufferView":4,"componentType":5125,"count":36,"type":"SCALAR"},{"bufferView":25,"componentType":5126,"count":24,"type":"VEC3","max":[0.125,1.5625,-0.1875],"min":[-0.125,0.875,-0.4375]},{"bufferView":25,"componentType":5126,"count":24,"type":"VEC3","byteOffset":12},{"bufferView":26,"componentType":5126,"count":24,"type":"VEC2"},{"bufferView":5,"componentType":5125,"count":36,"type":"SCALAR"},{"bufferView":27,"componentType":5126,"count":24,"type":"VEC3","max":[0.125,1.4375,-0.4375],"min":[-0.125,1.3125,-0.5625]},{"bufferView":27,"componentType":5126,"count":24,"type":"VEC3","byteOffset":12},{"bufferView":28,"componentType":5126,"count":24,"type":"VEC2"},{"bufferView":6,"componentType":5125,"count":36,"type":"SCALAR"},{"bufferView":29,"componentType":5126,"count":24,"type":"VEC3","max":[0.03125,0.21875,0.375],"min":[-0.03125,-0.21875,-0.375]},{"bufferView":29,"componentType":5126,"count":24,"type":"VEC3","byteOffset":12},{"bufferView":30,"componentType":5126,"count":24,"type":"VEC2"},{"bufferView":7,"componentType":5125,"count":36,"type":"SCALAR"},{"bufferView":31,"componentType":5126,"count":24,"type":"VEC3","max":[0.03125,0.21875,0.375],"min":[-0.03125,-0.21875,-0.375]},{"bufferView":31,"componentType":5126,"count":24,"type":"VEC3","byteOffset":12},{"bufferView":32,"componentType":5126,"count":24,"type":"VEC2"},{"bufferView":8,"componentType":5125,"count":36,"type":"SCALAR"},{"bufferView":33,"componentType":5126,"count":24,"type":"VEC3","max":[0,0.3125,0.0625],"min":[-0.1875,0,-0.125]},{"bufferView":33,"componentType":5126,"count":24,"type":"VEC3","byteOffset":12},{"bufferView":34,"componentType":5126,"count":24,"type":"VEC2"},{"bufferView":9,"componentType":5125,"count":36,"type":"SCALAR"},{"bufferView":35,"componentType":5126,"count":24,"type":"VEC3","max":[0.1875,0.3125,0.0625],"min":[0,0,-0.125]},{"bufferView":35,"componentType":5126,"count":24,"type":"VEC3","byteOffset":12},{"bufferView":36,"componentType":5126,"count":24,"type":"VEC2"},{"bufferView":10,"componentType":5125,"count":36,"type":"SCALAR"},{"bufferView":37,"componentType":5126,"count":24,"type":"VEC3","max":[0.1875,0.25,0.1875],"min":[-0.1875,-0.25,-0.1875]},{"bufferView":37,"componentType":5126,"count":24,"type":"VEC3","byteOffset":12},{"bufferView":38,"componentType":5126,"count":24,"type":"VEC2"},{"bufferView":11,"componentType":5125,"count":36,"type":"SCALAR"},{"bufferView":39,"componentType":5126,"count":24,"type":"VEC3","max":[6.25E-05,-0.125,0.5625],"min":[0,-0.6875,0.125]},{"bufferView":39,"componentType":5126,"count":24,"type":"VEC3","byteOffset":12},{"bufferView":40,"componentType":5126,"count":24,"type":"VEC2"},{"bufferView":12,"componentType":5125,"count":36,"type":"SCALAR"},{"bufferView":41,"componentType":5126,"count":24,"type":"VEC3","max":[0.125,1.0625,-0.1875],"min":[-0.125,0.6875,-0.375]},{"bufferView":41,"componentType":5126,"count":24,"type":"VEC3","byteOffset":12},{"bufferView":42,"componentType":5126,"count":24,"type":"VEC2"},{"bufferView":13,"componentType":5125,"count":36,"type":"SCALAR"},{"bufferView":43,"componentType":5126,"count":24,"type":"VEC3","max":[0.03125,0.8125,-0.3125],"min":[-0.03125,0.6875,-0.4375]},{"bufferView":43,"componentType":5126,"count":24,"type":"VEC3","byteOffset":12},{"bufferView":44,"componentType":5126,"count":24,"type":"VEC2"},{"bufferView":14,"componentType":5125,"count":36,"type":"SCALAR"},{"bufferView":45,"componentType":5126,"count":24,"type":"VEC3","max":[6.25E-05,1.3125,-0.125],"min":[0,1,-0.4375]},{"bufferView":45,"componentType":5126,"count":24,"type":"VEC3","byteOffset":12},{"bufferView":46,"componentType":5126,"count":24,"type":"VEC2"},{"bufferView":15,"componentType":5125,"count":36,"type":"SCALAR"},{"bufferView":47,"componentType":5126,"count":24,"type":"VEC3","max":[0.125,0.9375,-0.375],"min":[-0.125,0.8125,-0.5]},{"bufferView":47,"componentType":5126,"count":24,"type":"VEC3","byteOffset":12},{"bufferView":48,"componentType":5126,"count":24,"type":"VEC2"},{"bufferView":16,"componentType":5125,"count":36,"type":"SCALAR"},{"bufferView":49,"componentType":5126,"count":24,"type":"VEC3","max":[0.1875,0.4375,0.0625],"min":[0,0,-0.125]},{"bufferView":49,"componentType":5126,"count":24,"type":"VEC3","byteOffset":12},{"bufferView":50,"componentType":5126,"count":24,"type":"VEC2"},{"bufferView":17,"componentType":5125,"count":36,"type":"SCALAR"},{"bufferView":51,"componentType":5126,"count":24,"type":"VEC3","max":[0,0.4375,0.0625],"min":[-0.1875,0,-0.125]},{"bufferView":51,"componentType":5126,"count":24,"type":"VEC3","byteOffset":12},{"bufferView":52,"componentType":5126,"count":24,"type":"VEC2"},{"bufferView":18,"componentType":5125,"count":36,"type":"SCALAR"},{"bufferView":53,"componentType":5126,"count":24,"type":"VEC3","max":[0.25,0.8125,0.1875],"min":[0.1875,0.5625,-0.1875]},{"bufferView":53,"componentType":5126,"count":24,"type":"VEC3","byteOffset":12},{"bufferView":54,"componentType":5126,"count":24,"type":"VEC2"},{"bufferView":19,"componentType":5125,"count":36,"type":"SCALAR"},{"bufferView":55,"componentType":5126,"count":24,"type":"VEC3","max":[-0.1875,0.8125,0.1875],"min":[-0.25,0.5625,-0.1875]},{"bufferView":55,"componentType":5126,"count":24,"type":"VEC3","byteOffset":12},{"bufferView":56,"componentType":5126,"count":24,"type":"VEC2"},{"bufferView":20,"componentType":5125,"count":36,"type":"SCALAR"}],"cameras":[{"type":"perspective","perspective":{"yfov":1.04719758,"zfar":1000,"znear":0.3}}],"images":[{"name":"model.png","uri":"model.png","mimeType":"image/png"},{"name":"CHIKEN.png","uri":"CHIKEN.png","mimeType":"image/png"}],"materials":[{"name":"Default-Material","pbrMetallicRoughness":{"metallicFactor":0,"roughnessFactor":0.5}},{"pbrMetallicRoughness":{"metallicFactor":0,"baseColorTexture":{"index":0}},"alphaMode":"MASK","alphaCutoff":0.05,"doubleSided":true},{"pbrMetallicRoughness":{"metallicFactor":0,"baseColorTexture":{"index":1}},"alphaMode":"MASK","alphaCutoff":0.05,"doubleSided":true}],"meshes":[{"name":"Cylinder","primitives":[{"attributes":{"POSITION":0,"NORMAL":1,"TANGENT":2,"TEXCOORD_0":3,"TEXCOORD_1":4},"indices":5,"material":0}]},{"name":"Plane","primitives":[{"attributes":{"POSITION":6,"NORMAL":7,"TANGENT":8,"TEXCOORD_0":9},"indices":10,"material":0}]},{"name":"Cube","primitives":[{"attributes":{"POSITION":11,"NORMAL":12,"TANGENT":13,"TEXCOORD_0":14,"TEXCOORD_1":15},"indices":16,"material":0}]},{"primitives":[{"attributes":{"POSITION":17,"NORMAL":18,"TEXCOORD_0":19},"indices":20,"material":1}]},{"primitives":[{"attributes":{"POSITION":21,"NORMAL":22,"TEXCOORD_0":23},"indices":24,"material":1}]},{"primitives":[{"attributes":{"POSITION":25,"NORMAL":26,"TEXCOORD_0":27},"indices":28,"material":1}]},{"primitives":[{"attributes":{"POSITION":29,"NORMAL":30,"TEXCOORD_0":31},"indices":32,"material":1}]},{"primitives":[{"attributes":{"POSITION":33,"NORMAL":34,"TEXCOORD_0":35},"indices":36,"material":1}]},{"primitives":[{"attributes":{"POSITION":37,"NORMAL":38,"TEXCOORD_0":39},"indices":40,"material":1}]},{"primitives":[{"attributes":{"POSITION":41,"NORMAL":42,"TEXCOORD_0":43},"indices":44,"material":1}]},{"primitives":[{"attributes":{"POSITION":45,"NORMAL":46,"TEXCOORD_0":47},"indices":48,"material":1}]},{"primitives":[{"attributes":{"POSITION":49,"NORMAL":50,"TEXCOORD_0":51},"indices":52,"material":2}]},{"primitives":[{"attributes":{"POSITION":53,"NORMAL":54,"TEXCOORD_0":55},"indices":56,"material":2}]},{"primitives":[{"attributes":{"POSITION":57,"NORMAL":58,"TEXCOORD_0":59},"indices":60,"material":2}]},{"primitives":[{"attributes":{"POSITION":61,"NORMAL":62,"TEXCOORD_0":63},"indices":64,"material":2}]},{"primitives":[{"attributes":{"POSITION":65,"NORMAL":66,"TEXCOORD_0":67},"indices":68,"material":2}]},{"primitives":[{"attributes":{"POSITION":69,"NORMAL":70,"TEXCOORD_0":71},"indices":72,"material":2}]},{"primitives":[{"attributes":{"POSITION":73,"NORMAL":74,"TEXCOORD_0":75},"indices":76,"material":2}]},{"primitives":[{"attributes":{"POSITION":77,"NORMAL":78,"TEXCOORD_0":79},"indices":80,"material":2}]},{"primitives":[{"attributes":{"POSITION":81,"NORMAL":82,"TEXCOORD_0":83},"indices":84,"material":2}]},{"primitives":[{"attributes":{"POSITION":85,"NORMAL":86,"TEXCOORD_0":87},"indices":88,"material":2}]}],"samplers":[{"magFilter":9728,"minFilter":9728,"wrapS":33071,"wrapT":33071}],"scene":0,"scenes":[{"name":"SampleScene","nodes":[0,1,2,3,4,5,6,7,8,9,10,11,12,13,14,15,16,17,18,19,20,35,57]}],"textures":[{"source":0,"sampler":0},{"source":1,"sampler":0}],"extensions":{"KHR_lights_punctual":{"lights":[{"type":"directional","name":"Directional Light","color":[1,0.904661357,0.6724432],"intensity":3.14159274}]}}}